<svg class="svg-icon" style="width: 1em; height: 1em;vertical-align: middle;fill: currentColor;overflow: hidden;" viewBox="0 0 1024 1024" version="1.1" xmlns="http://www.w3.org/2000/svg"><path d="M438.623573 366.216533c-5.843627 0-143.26784-3.3792-152.599893-297.301333a20.486827 20.486827 0 0 1 19.821227-21.121707 20.445867 20.445867 0 0 1 21.121706 19.821227c7.959893 250.630827 110.626133 257.6384 111.660374 257.6384a20.48 20.48 0 0 1-0.003414 40.963413z" fill="#118700" /><path d="M452.4544 137.239893s156.392107 126.068053 57.35424 224.43008l-134.9632 42.52672c-0.003413 0 140.827307-148.432213 77.60896-266.9568z" fill="#78ED07" /><path d="M374.842027 424.680107a20.486827 20.486827 0 0 1-14.885547-34.54976c1.303893-1.3824 129.80224-139.431253 74.427733-243.254614a20.48 20.48 0 0 1 30.921387-25.582933c3.80928 3.068587 93.313707 76.151467 97.675947 160.33792 1.83296 35.396267-11.199147 67.211947-38.744747 94.569813a20.483413 20.483413 0 0 1-8.277333 5.000534l-134.9632 42.52672a20.360533 20.360533 0 0 1-6.15424 0.95232z m114.408106-218.651307c-0.62464 60.25216-30.846293 118.62016-57.852586 158.8736l67.314346-21.210453c16.841387-18.087253 24.490667-37.707093 23.36768-59.8528-1.406293-27.784533-16.16896-55.268693-32.82944-77.810347z" fill="#118700" /><path d="M450.717013 372.48s-163.365547 26.48064-273.650346-44.649813c0 0 12.540587 116.722347 114.97472 141.769386 0 0.003413 148.688213 44.602027 158.675626-97.119573z" fill="#78ED07" /><path d="M342.043307 496.735573h-0.01024c-12.772693 0-25.941333-1.235627-39.133867-3.669333-5.536427-1.020587-10.96704-2.020693-15.711573-3.61472l-0.01024 0.037547c-115.073707-28.136107-129.897813-154.125653-130.474667-159.474347A20.486827 20.486827 0 0 1 188.166827 310.613333c59.211093 38.188373 136.062293 46.20288 190.1056 46.20288 40.301227 0 68.898133-4.51584 69.18144-4.560213a20.50048 20.50048 0 0 1 23.691946 21.6576c-5.49888 78.05952-52.558507 122.821973-129.102506 122.821973z m-44.107094-46.749013c0.99328 0.283307 20.41856 5.789013 44.100267 5.789013 46.646613 0 74.482347-19.667627 84.497067-59.968853-12.724907 1.058133-29.24544 1.97632-48.26112 1.97632-47.5648 0-111.476053-5.8368-169.721174-30.40256 12.294827 30.993067 37.53984 69.901653 88.354134 82.326187 0.34816 0.085333 0.692907 0.177493 1.030826 0.279893z" fill="#118700" /><path d="M446.72 354.42688s158.1056-48.90624 225.266347-161.645227c0 0 40.666453 110.127787-39.959894 178.107734 0 0-113.360213 106.042027-185.306453-16.462507z" fill="#78ED07" /><path d="M534.807893 433.974613c-29.709653 0-72.168107-12.00128-105.745066-69.178026a20.48 20.48 0 0 1 11.608746-29.938347c1.49504-0.464213 151.487147-48.090453 213.725867-152.562347a20.486827 20.486827 0 0 1 36.805973 3.386027c1.860267 5.041493 44.496213 124.183893-45.6192 200.564053-5.43744 4.9664-53.917013 47.72864-110.77632 47.72864z m-56.040106-69.34528c16.155307 19.060053 34.638507 28.38528 56.040106 28.38528 42.400427 0 82.834773-36.7104 83.23072-37.082453 0.256-0.238933 0.518827-0.474453 0.78848-0.699733 39.60832-33.396053 44.99456-79.47264 42.356054-112.769707-57.41568 66.679467-140.537173 105.632427-182.41536 122.166613z" fill="#118700" /><path d="M468.053333 451.84c0 44.782933-39.488853 81.08032-88.746666 81.08032-49.261227 0-88.746667-36.297387-88.746667-81.08032v-16.213333c0-44.77952 39.48544-81.076907 88.746667-81.076907 49.257813 0 88.746667 36.297387 88.746666 81.076907v16.213333z" fill="#FC174D" /><path d="M379.306667 553.40032c-60.228267 0-109.226667-45.561173-109.226667-101.56032v-16.213333c0-55.999147 48.9984-101.556907 109.226667-101.556907s109.226667 45.55776 109.226666 101.556907v16.213333c0 55.999147-48.9984 101.56032-109.226666 101.56032z m0-178.37056c-37.64224 0-68.266667 27.183787-68.266667 60.596907v16.213333c0 33.416533 30.624427 60.60032 68.266667 60.60032s68.266667-27.183787 68.266666-60.60032v-16.213333c0-33.41312-30.624427-60.596907-68.266666-60.596907z" fill="#A40000" /><path d="M389.546667 575.163733c0 44.772693-39.488853 81.076907-88.746667 81.076907-49.261227 0-88.746667-36.304213-88.746667-81.076907v-16.216746c0-44.77952 39.48544-81.08032 88.746667-81.08032 49.257813 0 88.746667 36.3008 88.746667 81.08032v16.216746z" fill="#FC174D" /><path d="M300.8 676.72064c-60.228267 0-109.226667-45.55776-109.226667-101.556907v-16.216746c0-55.999147 48.9984-101.56032 109.226667-101.56032s109.226667 45.561173 109.226667 101.56032v16.216746c0 55.999147-48.9984 101.556907-109.226667 101.556907z m0-178.373973c-37.64224 0-68.266667 27.1872-68.266667 60.60032v16.216746c0 33.41312 30.624427 60.596907 68.266667 60.596907s68.266667-27.183787 68.266667-60.596907v-16.216746c0-33.41312-30.624427-60.60032-68.266667-60.60032z" fill="#A40000" /><path d="M410.026667 707.290453c0 44.776107-39.488853 81.08032-88.746667 81.08032s-88.746667-36.304213-88.746667-81.08032v-16.213333c0-44.776107 39.488853-81.083733 88.746667-81.083733s88.746667 36.307627 88.746667 81.083733v16.213333z" fill="#FC174D" /><path d="M321.28 808.850773c-60.228267 0-109.226667-45.561173-109.226667-101.56032v-16.213333c0-56.00256 48.9984-101.563733 109.226667-101.563733s109.226667 45.561173 109.226667 101.563733v16.213333c0 55.999147-48.9984 101.56032-109.226667 101.56032z m0-178.377386c-37.64224 0-68.266667 27.1872-68.266667 60.603733v16.213333c0 33.41312 30.624427 60.60032 68.266667 60.60032s68.266667-27.1872 68.266667-60.60032v-16.213333c0-33.416533-30.624427-60.603733-68.266667-60.603733z" fill="#A40000" /><path d="M498.773333 812.99456c0 44.77952-37.782187 81.08032-87.04 81.08032s-87.04-36.3008-87.04-81.08032v-16.213333c0-44.77952 37.782187-81.08032 87.04-81.08032s87.04 36.3008 87.04 81.08032v16.213333z" fill="#FC174D" /><path d="M411.733333 914.55488c-60.29312 0-107.52-44.608853-107.52-101.56032v-16.213333c0-56.951467 47.22688-101.56032 107.52-101.56032s107.52 44.608853 107.52 101.56032v16.213333c0 56.948053-47.22688 101.56032-107.52 101.56032z m0-178.373973c-37.3248 0-66.56 26.620587-66.56 60.60032v16.213333c0 33.979733 29.2352 60.60032 66.56 60.60032s66.56-26.620587 66.56-60.60032v-16.213333c0-33.979733-29.2352-60.60032-66.56-60.60032z" fill="#A40000" /><path d="M648.96 874.653013c0 44.77952-37.7856 81.08032-87.04 81.08032-49.261227 0-87.04-36.3008-87.04-81.08032v-16.213333c0-44.77952 37.778773-81.08032 87.04-81.08032 49.2544 0 87.04 36.3008 87.04 81.08032v16.213333z" fill="#FC174D" /><path d="M561.92 976.213333c-60.29312 0-107.52-44.608853-107.52-101.56032v-16.213333c0-56.951467 47.22688-101.56032 107.52-101.56032 60.289707 0 107.52 44.608853 107.52 101.56032v16.213333c0 56.951467-47.230293 101.56032-107.52 101.56032z m0-178.373973c-37.3248 0-66.56 26.620587-66.56 60.60032v16.213333c0 33.979733 29.2352 60.60032 66.56 60.60032s66.56-26.620587 66.56-60.60032v-16.213333c0-33.979733-29.2352-60.60032-66.56-60.60032z" fill="#A40000" /><path d="M829.866667 641.225387c0 44.772693-39.492267 81.073493-88.746667 81.073493-49.261227 0-88.746667-36.3008-88.746667-81.073493v-16.22016c0-44.77952 39.48544-81.08032 88.746667-81.08032 49.2544 0 88.746667 36.3008 88.746667 81.08032v16.22016z" fill="#7902AA" /><path d="M741.12 742.77888c-60.228267 0-109.226667-45.55776-109.226667-101.553493v-16.22016c0-55.999147 48.9984-101.56032 109.226667-101.56032s109.226667 45.561173 109.226667 101.56032v16.22016c0 55.999147-48.9984 101.553493-109.226667 101.553493z m0-178.37056c-37.64224 0-68.266667 27.1872-68.266667 60.60032v16.22016c0 33.409707 30.624427 60.593493 68.266667 60.593493s68.266667-27.183787 68.266667-60.593493v-16.22016c0-33.416533-30.624427-60.60032-68.266667-60.60032z" fill="#56007A" /><path d="M812.8 504.692053c0 44.776107-37.778773 81.073493-87.04 81.073494s-87.04-36.3008-87.04-81.073494v-16.216746c0-44.77952 37.778773-81.08032 87.04-81.08032s87.04 36.3008 87.04 81.08032v16.216746z" fill="#FC174D" /><path d="M725.76 606.245547c-60.289707 0-107.52-44.60544-107.52-101.553494v-16.216746c0-56.951467 47.230293-101.56032 107.52-101.56032s107.52 44.608853 107.52 101.56032v16.216746c0 56.948053-47.230293 101.553493-107.52 101.553494z m0-178.37056c-37.3248 0-66.56 26.617173-66.56 60.60032v16.216746c0 33.979733 29.2352 60.593493 66.56 60.593494s66.56-26.617173 66.56-60.593494v-16.216746c0-33.983147-29.2352-60.60032-66.56-60.60032z" fill="#A40000" /><path d="M604.586667 413.303467c0 44.77952-37.7856 81.08032-87.04 81.08032-49.257813 0-87.04-36.3008-87.04-81.08032v-16.213334c0-44.782933 37.782187-81.08032 87.04-81.08032 49.2544 0 87.04 36.297387 87.04 81.08032v16.213334z" fill="#FC174D" /><path d="M517.546667 514.863787c-60.29312 0-107.52-44.608853-107.52-101.56032v-16.213334c0-56.951467 47.22688-101.56032 107.52-101.56032 60.289707 0 107.52 44.608853 107.52 101.56032v16.213334c0 56.951467-47.230293 101.56032-107.52 101.56032z m0-178.373974c-37.3248 0-66.56 26.617173-66.56 60.60032v16.213334c0 33.983147 29.2352 60.60032 66.56 60.60032s66.56-26.617173 66.56-60.60032v-16.213334c0-33.983147-29.2352-60.60032-66.56-60.60032z" fill="#A40000" /><path d="M730.88 433.343147c0 44.782933-39.48544 81.08032-88.746667 81.08032s-88.746667-36.3008-88.746666-81.08032v-16.213334c0-44.77952 39.48544-81.08032 88.746666-81.08032s88.746667 36.3008 88.746667 81.08032v16.213334z" fill="#FC174D" /><path d="M642.133333 534.903467c-60.228267 0-109.226667-45.561173-109.226666-101.56032v-16.213334c0-55.999147 48.9984-101.56032 109.226666-101.56032s109.226667 45.561173 109.226667 101.56032v16.213334c0 55.999147-48.9984 101.56032-109.226667 101.56032z m0-178.373974c-37.64224 0-68.266667 27.183787-68.266666 60.60032v16.213334c0 33.416533 30.624427 60.60032 68.266666 60.60032s68.266667-27.183787 68.266667-60.60032v-16.213334c0-33.41312-30.624427-60.60032-68.266667-60.60032z" fill="#A40000" /><path d="M567.04 523.414187c0 44.776107-39.48544 81.08032-88.746667 81.08032s-88.746667-36.304213-88.746666-81.08032v-16.216747c0-44.782933 39.48544-81.08032 88.746666-81.08032s88.746667 36.3008 88.746667 81.08032v16.216747z" fill="#FC174D" /><path d="M478.293333 624.974507c-60.228267 0-109.226667-45.561173-109.226666-101.56032v-16.216747c0-55.999147 48.9984-101.56032 109.226666-101.56032s109.226667 45.561173 109.226667 101.56032v16.216747c0 55.999147-48.9984 101.56032-109.226667 101.56032z m0-178.377387c-37.64224 0-68.266667 27.183787-68.266666 60.60032v16.216747c0 33.41312 30.624427 60.60032 68.266666 60.60032s68.266667-27.1872 68.266667-60.60032v-16.216747c0-33.416533-30.624427-60.60032-68.266667-60.60032z" fill="#A40000" /><path d="M509.013333 645.625173c0 44.77952-37.782187 81.08032-87.04 81.08032-49.261227 0-87.04-36.3008-87.04-81.08032v-16.213333c0-44.77952 37.778773-81.08032 87.04-81.08032 49.257813 0 87.04 36.3008 87.04 81.08032v16.213333z" fill="#FC174D" /><path d="M421.973333 747.185493c-60.29312 0-107.52-44.608853-107.52-101.56032v-16.213333c0-56.951467 47.22688-101.56032 107.52-101.56032s107.52 44.608853 107.52 101.56032v16.213333c0 56.951467-47.22688 101.56032-107.52 101.56032z m0-178.37056c-37.3248 0-66.56 26.620587-66.56 60.60032v16.213334c0 33.979733 29.2352 60.60032 66.56 60.60032s66.56-26.620587 66.56-60.60032v-16.213334c0-33.983147-29.2352-60.60032-66.56-60.60032z" fill="#A40000" /><path d="M846.933333 738.11968c0 44.77952-37.778773 81.08032-87.04 81.08032s-87.04-36.3008-87.04-81.08032v-16.213333c0-44.77952 37.778773-81.08032 87.04-81.08032s87.04 36.3008 87.04 81.08032v16.213333z" fill="#FC174D" /><path d="M759.893333 839.68c-60.289707 0-107.52-44.608853-107.52-101.56032v-16.213333c0-56.951467 47.230293-101.56032 107.52-101.56032s107.52 44.608853 107.52 101.56032v16.213333c0 56.951467-47.230293 101.56032-107.52 101.56032z m0-178.373973c-37.3248 0-66.56 26.620587-66.56 60.60032v16.213333c0 33.979733 29.2352 60.60032 66.56 60.60032s66.56-26.620587 66.56-60.60032v-16.213333c0-33.979733-29.2352-60.60032-66.56-60.60032z" fill="#A40000" /><path d="M771.84 817.401173c0 44.776107-39.492267 81.08032-88.746667 81.08032-49.261227 0-88.746667-36.304213-88.746666-81.08032v-16.213333c0-44.77952 39.48544-81.083733 88.746666-81.083733 49.2544 0 88.746667 36.304213 88.746667 81.083733v16.213333z" fill="#FC174D" /><path d="M683.093333 918.961493c-60.228267 0-109.226667-45.561173-109.226666-101.56032v-16.213333c0-56.00256 48.9984-101.563733 109.226666-101.563733s109.226667 45.561173 109.226667 101.563733v16.213333c0 55.999147-48.9984 101.56032-109.226667 101.56032z m0-178.377386c-37.64224 0-68.266667 27.1872-68.266666 60.603733v16.213333c0 33.41312 30.624427 60.60032 68.266666 60.60032s68.266667-27.1872 68.266667-60.60032v-16.213333c0-33.416533-30.624427-60.603733-68.266667-60.603733z" fill="#A40000" /><path d="M836.693333 614.79936c0 44.77952-39.48544 81.08032-88.746666 81.08032s-88.746667-36.3008-88.746667-81.08032v-16.213333c0-44.77952 39.48544-81.08032 88.746667-81.08032s88.746667 36.3008 88.746666 81.08032v16.213333z" fill="#FC174D" /><path d="M747.946667 716.35968c-60.228267 0-109.226667-45.561173-109.226667-101.56032v-16.213333c0-55.999147 48.9984-101.56032 109.226667-101.56032s109.226667 45.561173 109.226666 101.56032v16.213333c0 55.999147-48.9984 101.56032-109.226666 101.56032z m0-178.373973c-37.64224 0-68.266667 27.1872-68.266667 60.60032v16.213333c0 33.41312 30.624427 60.60032 68.266667 60.60032s68.266667-27.1872 68.266666-60.60032v-16.213333c0-33.41312-30.624427-60.60032-68.266666-60.60032z" fill="#A40000" /><path d="M693.333333 613.809493c0 44.776107-39.48544 81.08032-88.746666 81.08032s-88.746667-36.304213-88.746667-81.08032v-16.213333c0-44.782933 39.48544-81.083733 88.746667-81.083733s88.746667 36.3008 88.746666 81.083733v16.213333z" fill="#FC174D" /><path d="M604.586667 715.369813c-60.228267 0-109.226667-45.561173-109.226667-101.56032v-16.213333c0-56.00256 48.9984-101.563733 109.226667-101.563733s109.226667 45.561173 109.226666 101.563733v16.213333c0 55.999147-48.9984 101.56032-109.226666 101.56032z m0-178.377386c-37.64224 0-68.266667 27.1872-68.266667 60.603733v16.213333c0 33.41312 30.624427 60.60032 68.266667 60.60032s68.266667-27.1872 68.266666-60.60032v-16.213333c0-33.416533-30.624427-60.603733-68.266666-60.603733z" fill="#A40000" /><path d="M659.54816 779.779413m-17.066667 0a17.066667 17.066667 0 1 0 34.133334 0 17.066667 17.066667 0 1 0-34.133334 0Z" fill="#FFFFFF" /><path d="M638.72 790.971733c0 44.772693-37.7856 81.08032-87.04 81.08032s-87.04-36.307627-87.04-81.08032v-16.22016c0-44.772693 37.7856-81.073493 87.04-81.073493s87.04 36.3008 87.04 81.073493v16.22016z" fill="#FC174D" /><path d="M551.68 892.532053c-60.29312 0-107.52-44.608853-107.52-101.56032v-16.22016c0-56.948053 47.22688-101.553493 107.52-101.553493 60.289707 0 107.52 44.60544 107.52 101.553493v16.22016c0 56.951467-47.230293 101.56032-107.52 101.56032z m0-178.37056c-37.3248 0-66.56 26.617173-66.56 60.593494v16.22016c0 33.979733 29.2352 60.60032 66.56 60.60032s66.56-26.620587 66.56-60.60032v-16.22016c0-33.979733-29.2352-60.593493-66.56-60.593494z" fill="#A40000" /><path d="M400.131413 610.819413m-17.066666 0a17.066667 17.066667 0 1 0 34.133333 0 17.066667 17.066667 0 1 0-34.133333 0Z" fill="#FFFFFF" /><path d="M275.544747 540.84608m-17.066667 0a17.066667 17.066667 0 1 0 34.133333 0 17.066667 17.066667 0 1 0-34.133333 0Z" fill="#FFFFFF" /><path d="M453.03808 486.232747m-17.066667 0a17.066667 17.066667 0 1 0 34.133334 0 17.066667 17.066667 0 1 0-34.133334 0Z" fill="#FFFFFF" /><path d="M616.881493 397.48608m-17.066666 0a17.066667 17.066667 0 1 0 34.133333 0 17.066667 17.066667 0 1 0-34.133333 0Z" fill="#FFFFFF" /><path d="M350.63808 417.96608m-17.066667 0a17.066667 17.066667 0 1 0 34.133334 0 17.066667 17.066667 0 1 0-34.133334 0Z" fill="#FFFFFF" /><path d="M490.584747 373.592747m-17.066667 0a17.066667 17.066667 0 1 0 34.133333 0 17.066667 17.066667 0 1 0-34.133333 0Z" fill="#FFFFFF" /><path d="M289.19808 679.08608m-17.066667 0a17.066667 17.066667 0 1 0 34.133334 0 17.066667 17.066667 0 1 0-34.133334 0Z" fill="#FFFFFF" /><path d="M587.86816 583.512747m-17.066667 0a17.066667 17.066667 0 1 0 34.133334 0 17.066667 17.066667 0 1 0-34.133334 0Z" fill="#FFFFFF" /><path d="M736.34816 583.512747m-17.066667 0a17.066667 17.066667 0 1 0 34.133334 0 17.066667 17.066667 0 1 0-34.133334 0Z" fill="#FFFFFF" /><path d="M533.254827 755.88608m-17.066667 0a17.066667 17.066667 0 1 0 34.133333 0 17.066667 17.066667 0 1 0-34.133333 0Z" fill="#FFFFFF" /><path d="M393.304747 779.779413m-17.066667 0a17.066667 17.066667 0 1 0 34.133333 0 17.066667 17.066667 0 1 0-34.133333 0Z" fill="#FFFFFF" /></svg>